<?xml version="1.0" encoding="utf-8"?>
<!-- Generator: Adobe Illustrator 22.1.0, SVG Export Plug-In . SVG Version: 6.00 Build 0)  -->
<svg version="1.1" id="Layer_1" xmlns="http://www.w3.org/2000/svg" xmlns:xlink="http://www.w3.org/1999/xlink" x="0px" y="0px"
	 viewBox="0 0 564.6 247.6" style="enable-background:new 0 0 564.6 247.6;" xml:space="preserve">
<style type="text/css">
	.st0{fill:url(#SVGID_1_);}
	.st1{fill:#2E3192;}
	.st2{fill:url(#SVGID_2_);}
	.st3{filter:url(#Adobe_OpacityMaskFilter);}
	.st4{clip-path:url(#SVGID_4_);fill:#F1F2F2;}
	.st5{clip-path:url(#SVGID_4_);mask:url(#SVGID_5_);}
	.st6{fill:url(#SVGID_6_);}
	.st7{fill:url(#SVGID_7_);}
	.st8{fill:url(#SVGID_8_);}
	.st9{fill:url(#SVGID_9_);}
	.st10{fill:url(#SVGID_10_);}
	.st11{fill:url(#SVGID_11_);}
	.st12{fill:url(#SVGID_12_);}
	.st13{fill:url(#SVGID_13_);}
	.st14{fill:url(#SVGID_14_);}
	.st15{fill:url(#SVGID_15_);}
	.st16{fill:url(#SVGID_16_);}
	.st17{fill:url(#SVGID_17_);}
	.st18{fill:url(#SVGID_18_);}
	.st19{fill:url(#SVGID_19_);}
	.st20{fill:url(#SVGID_20_);}
	.st21{fill:url(#SVGID_21_);}
	.st22{fill:url(#SVGID_22_);}
	.st23{fill:url(#SVGID_23_);}
	.st24{fill:url(#SVGID_24_);}
	.st25{fill:url(#SVGID_25_);}
	.st26{fill:url(#SVGID_26_);}
	.st27{fill:url(#SVGID_27_);}
</style>
<g>
	
		<linearGradient id="SVGID_1_" gradientUnits="userSpaceOnUse" x1="385.4498" y1="-216.1067" x2="218.9532" y2="-94.2454" gradientTransform="matrix(0.7641 -0.645 0.645 0.7641 -7.8349 373.2999)">
		<stop  offset="0" style="stop-color:#8DC63F"/>
		<stop  offset="0.2308" style="stop-color:#7FC341"/>
		<stop  offset="0.6668" style="stop-color:#5ABC46"/>
		<stop  offset="1" style="stop-color:#39B54A"/>
	</linearGradient>
	<path class="st0" d="M148.7,20.8c0,0.1-0.1,0.3-0.2,0.4l0,0.1l-0.1,0.1l-0.2,0.2l-0.3,0.4c-0.2,0.3-0.4,0.5-0.6,0.8
		c-0.4,0.5-0.9,1-1.4,1.4c-1,0.9-2,1.8-3.2,2.5c-2.3,1.5-5,2.7-8.1,3c-1.5,0.1-3.1,0-4.7-0.3c-1.6-0.3-3-0.9-4.4-1.7
		c-2.7-1.5-5-3.6-6.9-5.8l-2.1-2.5l2.5-2.9l0.5-0.5l0.4-0.4c0.3-0.3,0.5-0.6,0.8-0.8c0.5-0.6,1.1-1.1,1.6-1.6c1.1-1,2.4-2,3.7-2.8
		c1.4-0.8,2.9-1.5,4.6-1.8c1.7-0.4,3.4-0.5,5.2-0.2c1.7,0.2,3.4,0.8,4.9,1.5c1.5,0.8,2.8,1.7,3.9,2.9c1.1,1.1,2,2.4,2.6,3.7
		c0.3,0.7,0.6,1.3,0.8,2c0.2,0.4,0.4,1,0.5,1.4C148.6,20.1,148.7,20.5,148.7,20.8z M147.6,20.7c-0.4-0.2-0.8-0.3-1.1-0.3
		c-0.3,0-0.5,0-0.8,0c-0.7-0.2-1.2-0.4-1.8-0.6c-1.2-0.4-2.3-0.7-3.3-0.9c-0.3-0.1-0.5-0.1-0.8-0.1c-0.3,0-0.5-0.1-0.7-0.1
		c-0.5,0-0.9-0.1-1.4-0.1c-0.9,0-1.7,0-2.4,0.2c-1.5,0.3-3,0.6-4.8,1.1c-0.9,0.2-1.8,0.6-2.7,1c-0.5,0.2-0.9,0.4-1.3,0.7l-0.6,0.4
		l-0.3,0.2c-0.1,0.1-0.2,0.2-0.2,0.1l0.3-5.4c1.1,1.9,2.4,3.6,3.8,4.9c1.5,1.3,3.2,2.2,5.2,2.5c2,0.4,4.3,0.1,6.6-0.7
		c1.1-0.4,2.3-0.8,3.3-1.4c0.6-0.3,1.1-0.6,1.6-0.9c0.3-0.2,0.5-0.3,0.8-0.5l0.4-0.3l0.2-0.1l0.1-0.1l0,0
		C147.7,20.5,147.6,20.6,147.6,20.7z"/>
	<path class="st1" d="M56.4,100.4c-5-5.8-8.9-12.4-12.1-19.4c-3.2-7-5.5-14.4-6.9-22c-0.4-1.9-0.6-3.8-0.9-5.7
		c-0.2-1.9-0.4-3.9-0.5-5.8c-0.3-3.9-0.2-7.8-0.1-11.7c0.4-7.8,1.8-15.5,3.8-23l0.6-2.3l2.4-0.6c0.7-0.2,1.2-0.3,1.8-0.4
		c0.6-0.1,1.1-0.2,1.7-0.3c1.1-0.2,2.2-0.3,3.3-0.4c2.2-0.2,4.4-0.3,6.6-0.2c4.4,0,8.8,0.5,13.2,1.3c8.7,1.7,17.2,5.6,24,11.4
		c3.4,2.9,6.5,6.1,9.2,9.6c0.7,0.9,1.3,1.8,1.9,2.7l0.9,1.3c0.3,0.4,0.6,0.9,0.9,1.4l1.7,2.8c0.5,0.9,1,1.9,1.5,2.9
		c3.8,7.7,6.2,16,7.1,24.3c0,0.3-0.2,0.6-0.5,0.6c-0.2,0-0.4-0.1-0.5-0.3c-3.9-7.3-7.9-14.3-12.6-20.6l-1.8-2.3l-1.9-2.2
		c-0.3-0.4-0.6-0.8-0.9-1.1l-1-1.1c-0.7-0.7-1.3-1.4-2-2.1c-2.7-2.7-5.6-5.2-8.6-7.4c-6.1-4.4-12.7-7.7-19.9-10
		c-3.6-1.1-7.3-1.9-11.1-2.2c-1.9-0.2-3.8-0.2-5.7-0.2c-0.9,0-1.9,0.1-2.8,0.1c-0.5,0-0.9,0.1-1.4,0.1c-0.4,0-0.9,0.1-1.2,0.2
		l3.1-2.8c-2.3,6.9-4,14-4.9,21.2c-0.4,3.6-0.7,7.2-0.7,10.9c-0.1,1.8,0,3.6,0.1,5.5c0.1,1.8,0.2,3.7,0.4,5.5
		c0.7,7.3,2.4,14.5,4.8,21.5c1.2,3.5,2.6,6.9,4.3,10.3c1.6,3.3,3.5,6.6,5.6,9.6l0,0c0.2,0.2,0.1,0.6-0.1,0.7
		C56.9,100.7,56.6,100.6,56.4,100.4z"/>
	<path class="st1" d="M109.1,85.1c0.4-3.3,1-6.6,1.9-9.8c0.9-3.2,2-6.4,3.3-9.5c2.6-6.2,6.1-12.1,10.6-17.2c2.2-2.6,4.7-5,7.4-7.1
		c0.7-0.6,1.4-1,2.1-1.6c0.7-0.5,1.4-1,2.2-1.5c1.5-0.9,3.2-1.8,5-2.5c3.6-1.3,7.8-1.5,11.5-0.5c1.9,0.5,3.6,1.2,5.3,2
		c0.8,0.4,1.6,0.9,2.4,1.4l2.2,1.5l4.7,3.2l-5.4,3l-0.7,0.4l-0.7,0.4c-0.5,0.3-0.9,0.6-1.4,0.9c-0.9,0.6-1.8,1.3-2.6,2
		c-0.8,0.7-1.5,1.4-2,2.1c-0.5,0.7-0.8,1.3-1,2.1c-0.4,1.5-0.5,3.7-0.3,5.9c0.2,2.3,0.5,4.6,1,7c0.9,4.7,2.1,9.5,3.3,14.3
		c1.3,5.1,2.1,10.7,1.9,16.2c-0.2,5.5-1.3,11-3.1,16.1c-1.8,5.1-4.3,9.9-7.2,14.3c-1.5,2.2-3,4.3-4.7,6.3l-1.2,1.5
		c-0.4,0.5-0.8,1-1.3,1.5c-0.9,0.9-1.8,1.9-2.6,2.8c-0.4,0.5-0.9,0.9-1.3,1.4l-1.4,1.3l-2.8,2.6c-2,1.6-4,3.2-6,4.7
		c-0.2,0.2-0.6,0.1-0.8-0.1c-0.1-0.2-0.1-0.4,0-0.6l0,0c0.7-1.1,1.4-2.1,2-3.2c0.7-1,1.4-2.1,2.1-3.1l2-3.2c0.7-1,1.3-2.1,1.9-3.2
		c0.6-1.1,1.2-2.1,1.9-3.2c0.6-1,1.2-2.1,1.7-3.2c0.5-1.1,1.2-2.1,1.7-3.2c0.5-1.1,1-2.2,1.5-3.2c1.9-4.4,3.6-8.7,4.7-13.2
		c1.1-4.4,1.7-8.9,1.8-13.4c0.1-4.5-0.2-9-1-13.6c-0.8-5-1.6-10-2.1-15.2c-0.3-2.6-0.5-5.2-0.5-7.9c0-0.7,0-1.4,0-2.1
		c0-0.7,0.1-1.4,0.1-2.2c0.2-1.5,0.4-3,1-4.7c0.3-0.8,0.7-1.6,1.1-2.4c0.2-0.4,0.5-0.8,0.7-1.1c0.2-0.3,0.5-0.7,0.8-1
		c1-1.2,2.1-2.3,3.3-3.2c1.1-0.9,2.3-1.7,3.5-2.4c0.6-0.4,1.2-0.7,1.8-1l0.9-0.5c0.3-0.2,0.6-0.3,1-0.5l-0.7,6.2
		c-2.3-1.9-4.7-3.5-7.3-4.3c-1.3-0.5-2.6-0.7-3.9-0.7c-1.3-0.1-2.6,0.1-4,0.5c-1.3,0.4-2.6,0.9-4,1.6c-0.7,0.3-1.3,0.7-2,1.2
		c-0.7,0.4-1.3,0.8-2,1.3c-2.6,1.7-5,3.7-7.3,5.9c-4.5,4.4-8.3,9.7-11.3,15.4c-1.5,2.8-2.8,5.8-4,8.8c-1.1,3-2.1,6.2-2.7,9.3l0,0
		c-0.1,0.3-0.3,0.5-0.6,0.4C109.2,85.6,109,85.3,109.1,85.1z"/>
	
		<linearGradient id="SVGID_2_" gradientUnits="userSpaceOnUse" x1="404.2363" y1="-190.4391" x2="237.7397" y2="-68.5778" gradientTransform="matrix(0.7641 -0.645 0.645 0.7641 -7.8349 373.2999)">
		<stop  offset="0" style="stop-color:#8DC63F"/>
		<stop  offset="0.2308" style="stop-color:#7FC341"/>
		<stop  offset="0.6668" style="stop-color:#5ABC46"/>
		<stop  offset="1" style="stop-color:#39B54A"/>
	</linearGradient>
	<path class="st2" d="M151.3,31.3c-0.1-0.1-0.1-0.3-0.1-0.4l0-0.1l0-0.1l0-0.2l0-0.5c0-0.3,0-0.6,0-1c0-0.6,0.1-1.3,0.1-1.9
		c0.2-1.3,0.4-2.6,0.9-3.8c0.8-2.5,2.3-5,4.5-7c1.1-1,2.3-1.8,3.7-2.5c1.3-0.7,2.7-1.1,4.2-1.4c2.9-0.6,5.7-0.6,8.4-0.3l2.5,0.3
		l0.8,2.8l0.2,0.8l0.1,0.6c0.1,0.4,0.2,0.8,0.2,1.2c0.1,0.8,0.2,1.6,0.3,2.5c0.1,1.7,0,3.5-0.5,5.3c-0.5,1.8-1.4,3.6-2.7,5.1
		c-1.3,1.5-2.9,2.6-4.6,3.3c-3.4,1.4-6.6,1.5-9.6,1c-1.5-0.3-2.9-0.7-4.2-1.3l-1-0.5L154,33l-0.1-0.1l-0.2-0.1l-0.4-0.2
		c-0.5-0.2-0.9-0.5-1.2-0.7C151.8,31.7,151.5,31.5,151.3,31.3z M152.1,30.6c0.4-0.1,0.8-0.3,1.1-0.5c0.3-0.2,0.5-0.4,0.7-0.5
		l0.1-0.1c0,0,0,0,0.1-0.1l0.1-0.1l0.5-0.2l0.9-0.4c1.2-0.5,2.4-0.9,3.4-1.4c2.2-0.9,4-1.9,5.1-2.8c0.6-0.5,1-0.9,1.4-1.3
		c0.4-0.4,0.8-0.8,1.2-1.4c0.4-0.6,0.8-1.3,1-2.1c0.1-0.4,0.2-0.9,0.2-1.3c0-0.2,0-0.5,0-0.7l0-0.3c0-0.1,0-0.2,0-0.2l3.3,3.1
		c-2-0.6-4.1-1-6-1c-1,0-2,0.1-2.9,0.3c-0.9,0.2-1.9,0.5-2.7,0.9c-1.8,0.9-3.3,2.3-4.6,4.2c-0.6,0.9-1.2,1.9-1.7,3
		c-0.2,0.5-0.5,1.1-0.7,1.6c-0.1,0.3-0.2,0.6-0.3,0.8l-0.1,0.4l-0.1,0.2l0,0.1l0,0.1C152.3,30.9,152.2,30.7,152.1,30.6z"/>
	<path class="st1" d="M80.2,167.8c-0.3,2.7-1,5.3-1.7,7.9c-0.3,1.3-0.8,2.6-1.2,3.9c-0.4,1.3-0.9,2.5-1.4,3.8
		c-1.9,5-4.2,9.9-6.7,14.7l-1.9,3.6l-2,3.5l-1,1.7l-1.1,1.7l-2.2,3.4c-1.5,2.3-3,4.5-4.6,6.7l-4.8,6.5l-1.9-5.1
		c0.9,0.1,2,0.2,3.1,0.3c1,0.1,2.1,0.1,3.1,0.2c2.1,0.1,4.2,0.1,6.3,0c4.2-0.1,8.3-0.5,12.3-1.2c4-0.8,7.9-1.9,11.2-3.7
		c3.4-1.7,6.1-4.2,7.8-7l-0.1,5.2c-0.4-0.6-0.6-1-0.8-1.4c-0.2-0.4-0.5-0.9-0.7-1.3c-0.5-0.9-0.9-1.8-1.3-2.7
		c-0.8-1.8-1.6-3.6-2.2-5.5c-0.6-1.9-1.2-3.8-1.6-5.7c-0.2-1-0.4-1.9-0.5-2.9c-0.1-1-0.3-2-0.4-3c-0.4-4-0.2-8.1,0.5-12
		c0.7-4,2-7.9,3.8-11.5c1.8-3.6,4-6.9,6.6-9.9c0.6-0.7,1.3-1.4,2-2.1l1-1c0.4-0.3,0.7-0.6,1.1-1l2.2-1.9c0.8-0.6,1.5-1.1,2.3-1.7
		l1.2-0.8c0.4-0.3,0.8-0.5,1.2-0.8l2.4-1.5c1.6-1,3.3-1.8,5-2.6c1.7-0.7,3.4-1.5,5.1-2.1c1.7-0.6,3.5-1.2,5.3-1.7
		c0.3-0.1,0.6,0.1,0.7,0.4c0.1,0.2,0,0.4-0.2,0.6l0,0c-1.4,1.1-2.9,2.2-4.3,3.2c-1.4,1.1-2.8,2.2-4.2,3.3l-2,1.7
		c-0.7,0.6-1.3,1.1-1.9,1.7c-1.2,1.2-2.5,2.4-3.6,3.6l-1.7,1.9l-1.6,2c-0.3,0.3-0.5,0.6-0.8,1l-0.7,1c-0.5,0.7-1,1.3-1.4,2
		c-1.8,2.7-3.2,5.6-4.3,8.6c-0.2,0.8-0.5,1.5-0.8,2.2l-0.6,2.3c-0.2,0.8-0.3,1.5-0.5,2.3c-0.1,0.8-0.2,1.6-0.3,2.3
		c-0.4,3.1-0.4,6.3-0.2,9.4c0,0.8,0.2,1.6,0.2,2.4c0.1,0.8,0.2,1.6,0.4,2.4c0.3,1.6,0.6,3.2,1,4.7c0.4,1.6,0.9,3.1,1.4,4.7
		c0.3,0.8,0.6,1.5,0.9,2.3c0.2,0.4,0.3,0.7,0.5,1.1l0.4,0.9l1.4,3l-1.6,2.1c-3.2,4.3-7.6,7.4-12,9.4c-4.5,2-9.1,3.1-13.7,3.7
		c-4.6,0.6-9.1,0.7-13.6,0.6c-2.3-0.1-4.5-0.3-6.7-0.5c-1.1-0.1-2.2-0.3-3.3-0.4c-1.1-0.2-2.2-0.3-3.4-0.6l-5.3-1l3.4-4l5.1-6
		c1.6-2.1,3.3-4.1,4.9-6.2l2.4-3.2l1.2-1.6l1.1-1.6l2.3-3.2l2.1-3.3c2.8-4.4,5.5-9,7.8-13.8l1.7-3.6c0.5-1.2,1.1-2.4,1.5-3.7
		c1-2.4,1.8-5,2.4-7.5l0,0c0.1-0.3,0.3-0.5,0.6-0.4C80,167.3,80.2,167.6,80.2,167.8z"/>
	<path class="st1" d="M133.7,102.2c-0.7,0.5-1.3,0.9-2,1.2c-0.7,0.4-1.4,0.7-2,1c-1.4,0.6-2.8,1.1-4.2,1.6c-2.8,1-5.7,1.7-8.6,2.4
		c-5.8,1.3-11.7,2.3-17.6,3l-4.4,0.5l-4.4,0.5c-2.9,0.3-5.8,0.7-8.7,1.1c-5.8,0.8-11.5,1.8-17.2,3c-5.7,1.2-11.3,2.7-16.7,4.5
		c-5.4,1.8-10.7,4-15.5,6.8c-1.2,0.7-2.4,1.4-3.6,2.1c-1.1,0.8-2.3,1.5-3.4,2.4c-2.2,1.6-4.2,3.5-6.1,5.4l-1.4,1.5l-1.3,1.6
		c-0.4,0.5-0.8,1.1-1.2,1.6c-0.4,0.5-0.8,1.1-1.1,1.6c-1.5,2.2-2.6,4.6-3.7,7l-1.1-5.7c0.6,0.5,1.4,1.2,2.1,1.7
		c0.7,0.6,1.5,1.2,2.2,1.7c1.5,1.1,3,2.3,4.5,3.3c3,2.2,6.1,4.2,9.3,6c3.2,1.9,6.4,3.6,9.6,4.9l1.2,0.5c0.4,0.2,0.8,0.3,1.2,0.4
		c0.8,0.3,1.6,0.5,2.5,0.8c0.8,0.3,1.7,0.4,2.5,0.6c0.8,0.1,1.7,0.3,2.5,0.4c3.3,0.4,6.5,0.3,9.6-0.7c0.7-0.3,1.5-0.5,2.2-0.9
		l1.1-0.5l1.2-0.7c1.6-0.9,3.3-1.9,4.9-2.9c6.5-4.1,13-8.4,19.1-13.3l0,0c0.2-0.2,0.6-0.1,0.8,0.1c0.1,0.2,0.2,0.4,0,0.6
		c-2.2,3.3-4.7,6.5-7.4,9.4c-2.7,3-5.5,5.8-8.5,8.4c-1.5,1.3-3,2.6-4.6,3.9l-1.2,0.9l-1.4,1c-0.9,0.7-2,1.2-3,1.7
		c-0.5,0.3-1.1,0.5-1.6,0.7c-0.5,0.2-1.1,0.4-1.6,0.6l-1.7,0.5l-0.8,0.2l-0.9,0.1l-1.7,0.3c-0.6,0.1-1.1,0.1-1.7,0.1
		c-1.1,0.1-2.3,0.1-3.4,0.1c-4.5-0.1-8.8-1.2-12.9-2.5c-4.1-1.4-7.9-3.2-11.5-5.3c-3.6-2.1-7-4.4-10.2-6.9c-1.6-1.3-3.2-2.6-4.7-3.9
		c-0.8-0.7-1.5-1.4-2.3-2.1c-0.8-0.7-1.5-1.4-2.3-2.2L0,149.8l1.6-3c1.5-2.9,3.2-5.7,5.1-8.3c2-2.6,4.1-5,6.5-7.2
		c2.3-2.2,4.8-4.2,7.4-5.9c1.3-0.9,2.6-1.7,4-2.5c1.4-0.7,2.7-1.5,4.1-2.2c5.5-2.8,11.3-4.9,17.2-6.5c5.9-1.6,11.8-2.8,17.7-3.7
		c5.9-0.9,11.9-1.5,17.8-1.9c3-0.2,5.9-0.4,8.9-0.5l4.4-0.2l4.4-0.2c5.8-0.3,11.7-0.8,17.4-1.7c2.9-0.5,5.8-1,8.6-1.7
		c1.4-0.3,2.8-0.8,4.2-1.2c0.7-0.2,1.4-0.5,2-0.8c0.6-0.3,1.3-0.6,1.9-0.9l0.1,0c0.2-0.2,0.6-0.1,0.7,0.2
		C134,101.7,134,102,133.7,102.2z"/>
</g>
<g>
	<defs>
		<rect id="SVGID_3_" x="93.7" y="129.4" width="465.8" height="118.3"/>
	</defs>
	<clipPath id="SVGID_4_">
		<use xlink:href="#SVGID_3_"  style="overflow:visible;"/>
	</clipPath>
	<defs>
		<filter id="Adobe_OpacityMaskFilter" filterUnits="userSpaceOnUse" x="68.4" y="-74.8" width="776.2" height="528.1">
			<feColorMatrix  type="matrix" values="1 0 0 0 0  0 1 0 0 0  0 0 1 0 0  0 0 0 1 0"/>
		</filter>
	</defs>
	<mask maskUnits="userSpaceOnUse" x="68.4" y="-74.8" width="776.2" height="528.1" id="SVGID_5_">
		<g class="st3">
			<g>
				<path class="st4" d="M148.6,190v12.6h14.6v6.9c-0.8,0.4-1.8,0.7-3.2,1c-1.4,0.2-2.7,0.3-4,0.3c-7.3,0-12.5-2-15.8-6
					c-3.3-4-4.9-9.1-4.9-15.4c0-3.2,0.6-6,1.7-8.6c1.1-2.6,2.6-4.8,4.4-6.6c1.8-1.8,3.9-3.2,6.2-4.2c2.3-1,4.8-1.5,7.2-1.5
					c3.8,0,6.9,0.7,9.5,2h0c4.5,2.4,10.1,1.2,13.3-2.7l11.2-13.4c-4-4-9.2-7.2-15.6-9.5c-6.4-2.3-13.1-3.5-20.2-3.5
					c-6.8,0-13.2,1.1-19.2,3.4c-6,2.3-11.2,5.5-15.6,9.7c-4.4,4.2-7.9,9.2-10.5,15.1c-2.6,5.9-3.8,12.5-3.8,19.7
					c0,7.3,1.3,13.8,3.8,19.7c2.6,5.9,6.1,10.9,10.6,15.1c4.5,4.1,9.8,7.3,15.9,9.5c6.1,2.2,12.8,3.3,19.9,3.3
					c3.4,0,6.8-0.2,10.3-0.7c3.4-0.5,6.7-1.1,9.8-1.9c3.1-0.8,6.1-1.7,8.8-2.8c2.8-1.1,5.2-2.2,7.4-3.5v-49.6H160
					C153.7,178.6,148.6,183.7,148.6,190z"/>
				<path class="st4" d="M410.8,152.2L399,192.9h-0.6l-13.8-41.1c-1.6-4.6-5.9-7.8-10.8-7.8H342v90.7h28.5l-1.4-51.3h0.6l14.1,43.4
					c1.5,4.7,5.9,7.9,10.8,7.9h5c4.9,0,9.3-3.1,10.8-7.8l14.3-43.3l0.8,0.1l-0.9,51h29.7V144h-32.7
					C416.7,144,412.3,147.4,410.8,152.2z"/>
				<path class="st4" d="M527.4,206.5C527.3,206.5,527.3,206.6,527.4,206.5c-2.6,1.5-5.6,2.2-9.1,2.2c-2.5,0-4.8-0.4-7.1-1.3
					c-2.2-0.9-4.2-2.2-5.8-3.9c-1.7-1.7-3-3.7-4-6.1c-1-2.3-1.5-5-1.5-8s0.5-5.7,1.4-8.1c0.9-2.4,2.2-4.5,3.9-6.2
					c1.7-1.7,3.6-3,5.8-3.9c2.2-0.9,4.6-1.3,7.2-1.3c3.2,0,6,0.6,8.6,1.7c0.3,0.2,0.7,0.3,1,0.5c3.8,2,8.4,0.9,11.2-2.4L552,154
					c-4.2-3.8-9.4-6.9-15.6-9.2c-6.2-2.3-12.9-3.4-19.9-3.4c-6.8,0-13.3,1.1-19.3,3.4c-6,2.3-11.3,5.5-15.7,9.7
					c-4.4,4.2-7.9,9.2-10.5,15.1c-2.6,5.9-3.8,12.5-3.8,19.7c0,7.2,1.3,13.7,3.8,19.5c2.6,5.9,6.1,10.9,10.5,15.1
					c4.4,4.2,9.7,7.5,15.7,9.8c6,2.3,12.5,3.5,19.3,3.5c7.6,0,14.4-1.2,20.4-3.7c6-2.4,11-5.7,15.1-9.8l-12.8-15.4
					C536.2,205,531.3,204.3,527.4,206.5z"/>
				<path class="st4" d="M300.5,153.2l-8.1,41.8h-0.5l-11.4-51h-31.9l-10.5,51h-0.5l-8-41.8c-1-5.4-5.7-9.2-11.2-9.2h-22.9
					l24.7,90.7h21.9c5.2,0,9.7-3.5,11-8.5l11-42.7h0.5l10.7,42.7c1.3,5.1,5.8,8.6,11,8.6h21.9l25.3-90.7h-21.9
					C306.2,144,301.5,147.9,300.5,153.2z"/>
			</g>
		</g>
	</mask>
	<g class="st5">
		
			<linearGradient id="SVGID_6_" gradientUnits="userSpaceOnUse" x1="-288.363" y1="-45.1201" x2="85.1498" y2="-45.1201" gradientTransform="matrix(-0.691 -0.7229 0.7229 -0.691 294.828 84.639)">
			<stop  offset="0" style="stop-color:#EDBDE7"/>
			<stop  offset="0.1143" style="stop-color:#EEB3DF"/>
			<stop  offset="0.312" style="stop-color:#F096CB"/>
			<stop  offset="0.5695" style="stop-color:#F469A9"/>
			<stop  offset="0.8735" style="stop-color:#F92A7B"/>
			<stop  offset="1" style="stop-color:#FB0E66"/>
		</linearGradient>
		<polygon class="st6" points="338.4,-74.8 596.5,195.2 326.5,453.3 68.4,183.3 		"/>
		
			<linearGradient id="SVGID_7_" gradientUnits="userSpaceOnUse" x1="-132.7961" y1="-4.4695" x2="-47.8219" y2="-144.5369" gradientTransform="matrix(-0.691 -0.7229 0.7229 -0.691 294.828 84.639)">
			<stop  offset="0" style="stop-color:#FC17F7"/>
			<stop  offset="0.2312" style="stop-color:#F218ED"/>
			<stop  offset="0.6294" style="stop-color:#D61CD2"/>
			<stop  offset="1" style="stop-color:#B620B4"/>
		</linearGradient>
		<path class="st7" d="M409.1,374.3c0,0-59.1-4.9-70.6-36.5c-11.5-31.7,21.5-47.2-15.8-82.2c-37.3-35-67.6-30.5-95-76.6
			c-27.4-46.1-5.7-162.5,136.1-179.1c0,0,16.9-1.2,31.6-14.9l201.1,210.4L409.1,374.3"/>
		
			<linearGradient id="SVGID_8_" gradientUnits="userSpaceOnUse" x1="-132.7961" y1="-4.4695" x2="-47.8219" y2="-144.5369" gradientTransform="matrix(-0.691 -0.7229 0.7229 -0.691 294.828 84.639)">
			<stop  offset="0" style="stop-color:#FC17F7"/>
			<stop  offset="0.2312" style="stop-color:#F218ED"/>
			<stop  offset="0.6294" style="stop-color:#D61CD2"/>
			<stop  offset="1" style="stop-color:#B620B4"/>
		</linearGradient>
		<path class="st8" d="M409.1,374.3c0,0-59.1-4.9-70.6-36.5c-11.5-31.7,21.5-47.2-15.8-82.2c-37.3-35-67.6-30.5-95-76.6
			c-27.4-46.1-5.7-162.5,136.1-179.1c0,0,16.9-1.2,31.6-14.9l201.1,210.4L409.1,374.3"/>
		
			<linearGradient id="SVGID_9_" gradientUnits="userSpaceOnUse" x1="-170.7311" y1="54.783" x2="-57.2652" y2="-118.918" gradientTransform="matrix(-0.691 -0.7229 0.7229 -0.691 294.828 84.639)">
			<stop  offset="0" style="stop-color:#FC17F7"/>
			<stop  offset="0.2377" style="stop-color:#F118EC;stop-opacity:0.8336"/>
			<stop  offset="0.6565" style="stop-color:#D31CD0;stop-opacity:0.5405"/>
			<stop  offset="1" style="stop-color:#B620B4;stop-opacity:0.3"/>
		</linearGradient>
		<path class="st9" d="M227.7,178.9c27.4,46.1,57.8,41.7,95,76.6c37.3,35,4.4,50.5,15.8,82.2c11.5,31.7,70.6,36.5,70.6,36.5l6.6-6.3
			c-17.9-4.6-40.7-14-47.4-32.4c-11.5-31.7,21.5-47.2-15.8-82.2s-67.6-30.5-95-76.6S251.8,14.2,393.6-2.4c0,0,4.8-0.3,11.4-2.7
			l-9.6-10.1C380.7-1.4,363.8-0.2,363.8-0.2C222.1,16.4,200.3,132.8,227.7,178.9z"/>
		
			<linearGradient id="SVGID_10_" gradientUnits="userSpaceOnUse" x1="-192.9453" y1="52.2701" x2="11.5731" y2="-180.2646" gradientTransform="matrix(-0.691 -0.7229 0.7229 -0.691 294.828 84.639)">
			<stop  offset="0" style="stop-color:#FC17F7;stop-opacity:1"/>
			<stop  offset="0.157" style="stop-color:#CC39F2;stop-opacity:1"/>
			<stop  offset="0.378" style="stop-color:#8E63EC;stop-opacity:1"/>
			<stop  offset="0.5803" style="stop-color:#5D85E7;stop-opacity:1"/>
			<stop  offset="0.7569" style="stop-color:#399EE3;stop-opacity:1"/>
			<stop  offset="0.901" style="stop-color:#24ADE1;stop-opacity:1"/>
			<stop  offset="0.9946" style="stop-color:#1CB2E0"/>
		</linearGradient>
		<path class="st10" d="M424.8,15.6c0,0-0.8,22.3-44.4,23.3c-43.6,1-127,44.4-98,128.6c12.1,35.2,36.8,42.6,78,81.6
			c41.2,39-26.7,81.6,59.5,115l176.6-168.8L424.8,15.6z"/>
		<g>
			
				<radialGradient id="SVGID_11_" cx="-295.5482" cy="-101.8023" r="220.9639" gradientTransform="matrix(-0.691 -0.7229 0.7229 -0.691 294.828 84.639)" gradientUnits="userSpaceOnUse">
				<stop  offset="5.376050e-03" style="stop-color:#FC17F7;stop-opacity:0"/>
				<stop  offset="0.1003" style="stop-color:#EA1BEF;stop-opacity:2.862361e-02"/>
				<stop  offset="0.3976" style="stop-color:#B827D9;stop-opacity:0.1183"/>
				<stop  offset="0.6574" style="stop-color:#9330C9;stop-opacity:0.1967"/>
				<stop  offset="0.8669" style="stop-color:#7C35C0;stop-opacity:0.2599"/>
				<stop  offset="1" style="stop-color:#7437BC;stop-opacity:0.3"/>
			</radialGradient>
			<path class="st11" d="M377.3,232.8c-41.2-39-59.4-36.2-81.2-66.4c-26.8-37-0.7-80.9,16.8-101.9c-27.7,21.3-46.8,55.7-30.6,102.9
				c12.1,35.2,36.8,42.6,78,81.6c41.2,39-26.7,81.6,59.5,115l17-16.2C350.7,314.4,418.5,271.8,377.3,232.8z"/>
			
				<linearGradient id="SVGID_12_" gradientUnits="userSpaceOnUse" x1="-316.7519" y1="113.4951" x2="-96.8979" y2="135.2004" gradientTransform="matrix(-0.691 -0.7229 0.7229 -0.691 294.828 84.639)">
				<stop  offset="0" style="stop-color:#FC17F7;stop-opacity:1"/>
				<stop  offset="0.157" style="stop-color:#CC39F2;stop-opacity:1"/>
				<stop  offset="0.378" style="stop-color:#8E63EC;stop-opacity:1"/>
				<stop  offset="0.5803" style="stop-color:#5D85E7;stop-opacity:1"/>
				<stop  offset="0.7569" style="stop-color:#399EE3;stop-opacity:1"/>
				<stop  offset="0.901" style="stop-color:#24ADE1;stop-opacity:1"/>
				<stop  offset="0.9946" style="stop-color:#1CB2E0"/>
			</linearGradient>
			<path class="st12" d="M426.3,17.2l-1.5-1.6c0,0,0,0.9-0.4,2.4C425,17.7,425.6,17.4,426.3,17.2z"/>
		</g>
		
			<radialGradient id="SVGID_13_" cx="-296.404" cy="-221.7068" r="531.064" gradientTransform="matrix(-0.691 -0.7229 0.7229 -0.691 294.828 84.639)" gradientUnits="userSpaceOnUse">
			<stop  offset="0" style="stop-color:#FFB77B;stop-opacity:0.6"/>
			<stop  offset="6.545649e-02" style="stop-color:#FCAD7A;stop-opacity:0.6497"/>
			<stop  offset="0.1787" style="stop-color:#F49078;stop-opacity:0.7357"/>
			<stop  offset="0.3261" style="stop-color:#E76374;stop-opacity:0.8476"/>
			<stop  offset="0.5003" style="stop-color:#D6246F;stop-opacity:0.9799"/>
			<stop  offset="0.5269" style="stop-color:#D31A6E"/>
			<stop  offset="0.9946" style="stop-color:#B620B4"/>
		</radialGradient>
		<path class="st13" d="M326.5,453.3l59.3-56.7c0,0-60,0.7-76.8-45.3c-16.8-46,6.8-66-65.2-112.8c-71.9-46.8-84.6-56-85-84.7
			s64.5-36,59.7-114L68.4,183.3L326.5,453.3z"/>
		
			<linearGradient id="SVGID_14_" gradientUnits="userSpaceOnUse" x1="-73.9221" y1="-75.7925" x2="-191.5785" y2="59.6059" gradientTransform="matrix(-0.691 -0.7229 0.7229 -0.691 294.828 84.639)">
			<stop  offset="0" style="stop-color:#395398"/>
			<stop  offset="0.2455" style="stop-color:#5C42AD;stop-opacity:1"/>
			<stop  offset="0.3978" style="stop-color:#7437BC;stop-opacity:1"/>
			<stop  offset="0.561" style="stop-color:#8132BA;stop-opacity:1"/>
			<stop  offset="0.8652" style="stop-color:#A526B6;stop-opacity:1"/>
			<stop  offset="0.9946" style="stop-color:#B620B4"/>
		</linearGradient>
		<path class="st14" d="M453.9,331.5c0,0-47.7,12.1-61.7-24.8s25.6-78.7-37.3-103.9c-62.8-25.2-63.9-64.9-29.8-85.9
			c34.2-21,39.9-20.7,50.1-49.8c10.2-29.1,40.8-2.6,66.5-33.7l154.7,161.9L453.9,331.5z"/>
		
			<linearGradient id="SVGID_15_" gradientUnits="userSpaceOnUse" x1="-73.9221" y1="-75.7925" x2="-191.5785" y2="59.6059" gradientTransform="matrix(-0.691 -0.7229 0.7229 -0.691 294.828 84.639)">
			<stop  offset="0" style="stop-color:#395398"/>
			<stop  offset="0.2455" style="stop-color:#5C42AD;stop-opacity:1"/>
			<stop  offset="0.3978" style="stop-color:#7437BC;stop-opacity:1"/>
			<stop  offset="0.561" style="stop-color:#8132BA;stop-opacity:1"/>
			<stop  offset="0.8652" style="stop-color:#A526B6;stop-opacity:1"/>
			<stop  offset="0.9946" style="stop-color:#B620B4"/>
		</linearGradient>
		<path class="st15" d="M453.9,331.5c0,0-47.7,12.1-61.7-24.8s25.6-78.7-37.3-103.9c-62.8-25.2-63.9-64.9-29.8-85.9
			c34.2-21,39.9-20.7,50.1-49.8c10.2-29.1,40.8-2.6,66.5-33.7l154.7,161.9L453.9,331.5z"/>
		<g>
			
				<linearGradient id="SVGID_16_" gradientUnits="userSpaceOnUse" x1="-42.047" y1="-159.3907" x2="-205.4583" y2="74.9881" gradientTransform="matrix(-0.691 -0.7229 0.7229 -0.691 294.828 84.639)">
				<stop  offset="0.4032" style="stop-color:#395398;stop-opacity:0.7"/>
				<stop  offset="0.445" style="stop-color:#454E9B;stop-opacity:0.6505"/>
				<stop  offset="0.6241" style="stop-color:#763AA6;stop-opacity:0.4385"/>
				<stop  offset="0.7819" style="stop-color:#992CAD;stop-opacity:0.2518"/>
				<stop  offset="0.9108" style="stop-color:#AE23B2;stop-opacity:9.927464e-02"/>
				<stop  offset="0.9946" style="stop-color:#B620B4;stop-opacity:0"/>
			</linearGradient>
			<path class="st16" d="M427.1,290.3c-14-37,25.6-78.7-37.3-103.9c-62.8-25.2-63.9-64.9-29.8-85.9c34.2-21,39.9-20.7,50.1-49.8
				c0.1-0.1,0.1-0.3,0.2-0.4c-15.4,1.9-28.9-0.7-35,16.8c-10.2,29.1-15.9,28.8-50.1,49.8c-34.2,21-33.1,60.7,29.8,85.9
				c62.8,25.2,23.3,66.9,37.3,103.9s61.7,24.8,61.7,24.8l15.2-14.5C454.2,316.5,435.1,311.5,427.1,290.3z"/>
			
				<linearGradient id="SVGID_17_" gradientUnits="userSpaceOnUse" x1="-64.1585" y1="140.5743" x2="-64.8394" y2="141.3579" gradientTransform="matrix(-0.691 -0.7229 0.7229 -0.691 294.828 84.639)">
				<stop  offset="0" style="stop-color:#395398"/>
				<stop  offset="0.2455" style="stop-color:#5C42AD;stop-opacity:1"/>
				<stop  offset="0.3978" style="stop-color:#7437BC;stop-opacity:1"/>
				<stop  offset="0.561" style="stop-color:#8132BA;stop-opacity:1"/>
				<stop  offset="0.8652" style="stop-color:#A526B6;stop-opacity:1"/>
				<stop  offset="0.9946" style="stop-color:#B620B4"/>
			</linearGradient>
			<path class="st17" d="M442.6,34.2l-0.8-0.9c-0.3,0.3-0.6,0.7-0.9,1C441.4,34.3,442,34.3,442.6,34.2z"/>
		</g>
		
			<linearGradient id="SVGID_18_" gradientUnits="userSpaceOnUse" x1="-128.9845" y1="-21.6509" x2="-225.6864" y2="94.5334" gradientTransform="matrix(-0.691 -0.7229 0.7229 -0.691 294.828 84.639)">
			<stop  offset="0" style="stop-color:#33335B"/>
			<stop  offset="0.1391" style="stop-color:#3C3261"/>
			<stop  offset="0.369" style="stop-color:#552E72"/>
			<stop  offset="0.6611" style="stop-color:#7E288E"/>
			<stop  offset="1" style="stop-color:#B620B4"/>
		</linearGradient>
		<path class="st18" d="M596.5,195.2L463.9,56.5c0,0-22.5,47.3-63.2,37.2s-58.7,53.5-26.9,65.8c31.8,12.3,51.9,26.6,47.4,52.9
			c-4.6,26.3-38.2,98.5,49.5,103.2L596.5,195.2z"/>
		
			<radialGradient id="SVGID_19_" cx="-243.0747" cy="176.6532" r="282.4235" gradientTransform="matrix(-0.691 -0.7229 0.7229 -0.691 294.828 84.639)" gradientUnits="userSpaceOnUse">
			<stop  offset="0" style="stop-color:#444242"/>
			<stop  offset="0.3118" style="stop-color:#404861;stop-opacity:0.6407"/>
			<stop  offset="0.4581" style="stop-color:#3D4D78;stop-opacity:0.5045"/>
			<stop  offset="0.6254" style="stop-color:#3B508A;stop-opacity:0.3488"/>
			<stop  offset="0.8017" style="stop-color:#395294;stop-opacity:0.1846"/>
			<stop  offset="1" style="stop-color:#395398;stop-opacity:0"/>
		</radialGradient>
		<path class="st19" d="M373.7,159.5c31.8,12.3,51.9,26.6,47.4,52.9c-4.6,26.3-38.2,98.5,49.5,103.2l5.6-5.3
			c-44.4-19.6-20-74.1-16.2-96.3c4.6-26.3-15.6-40.6-47.4-52.9c-31.8-12.3-13.8-75.9,26.9-65.8c20.5,5.1,36.3-4.3,47.1-15
			l-22.7-23.8c0,0-22.5,47.3-63.2,37.2S342,147.2,373.7,159.5z"/>
		
			<linearGradient id="SVGID_20_" gradientUnits="userSpaceOnUse" x1="-166.3144" y1="32.0976" x2="-309.1832" y2="173.0991" gradientTransform="matrix(-0.691 -0.7229 0.7229 -0.691 294.828 84.639)">
			<stop  offset="0.1344" style="stop-color:#27273D"/>
			<stop  offset="0.2927" style="stop-color:#32294E"/>
			<stop  offset="0.608" style="stop-color:#4D2F7C"/>
			<stop  offset="1" style="stop-color:#7437BC"/>
		</linearGradient>
		<path class="st20" d="M492.5,294.6c0,0-59.3-3.4-34.2-46.7c25.1-43.4-33-61.2-28.8-94.3c6.6-52.4,69.1-14.6,51-79.7l116,121.4
			L492.5,294.6z"/>
		
			<radialGradient id="SVGID_21_" cx="74.8118" cy="-186.6865" r="286.1534" gradientTransform="matrix(-0.691 -0.7229 0.7229 -0.691 294.828 84.639)" gradientUnits="userSpaceOnUse">
			<stop  offset="0" style="stop-color:#AD2167;stop-opacity:0.3"/>
			<stop  offset="0.1407" style="stop-color:#B42074;stop-opacity:0.2578"/>
			<stop  offset="0.3989" style="stop-color:#C61E95;stop-opacity:0.1803"/>
			<stop  offset="0.7432" style="stop-color:#E41ACB;stop-opacity:7.703194e-02"/>
			<stop  offset="1" style="stop-color:#FC17F7;stop-opacity:0"/>
		</radialGradient>
		<path class="st21" d="M121.1,132.9c1.8,28.7,50.7,58.8,122.7,105.6c71.9,46.8,48.4,66.9,65.2,112.8c16.8,46,76.8,45.3,76.8,45.3
			l0,0l0,0l4.8-4.5c0,0-39,7.1-58-44.9c-19-52,10.5-79.4-73.7-127.6c-102.4-58.7-34.4-157.9-40.3-179.7"/>
		
			<radialGradient id="SVGID_22_" cx="-296.404" cy="-221.7068" r="531.064" gradientTransform="matrix(-0.691 -0.7229 0.7229 -0.691 294.828 84.639)" gradientUnits="userSpaceOnUse">
			<stop  offset="0" style="stop-color:#FFB77B;stop-opacity:0.6"/>
			<stop  offset="6.545649e-02" style="stop-color:#FCAD7A;stop-opacity:0.6497"/>
			<stop  offset="0.1787" style="stop-color:#F49078;stop-opacity:0.7357"/>
			<stop  offset="0.3261" style="stop-color:#E76374;stop-opacity:0.8476"/>
			<stop  offset="0.5003" style="stop-color:#D6246F;stop-opacity:0.9799"/>
			<stop  offset="0.5269" style="stop-color:#D31A6E"/>
			<stop  offset="0.9946" style="stop-color:#B620B4"/>
		</radialGradient>
		<path class="st22" d="M326.5,453.3l59.3-56.7c0,0-60,0.7-76.8-45.3c-16.8-46,6.8-66-65.2-112.8c-71.9-46.8-84.6-56-85-84.7
			s64.5-36,59.7-114L68.4,183.3L326.5,453.3z"/>
		
			<linearGradient id="SVGID_23_" gradientUnits="userSpaceOnUse" x1="-356.0403" y1="-96.8052" x2="235.7589" y2="-300.2949" gradientTransform="matrix(-0.691 -0.7229 0.7229 -0.691 294.828 84.639)">
			<stop  offset="0" style="stop-color:#FAC739"/>
			<stop  offset="9.357318e-02" style="stop-color:#F09947"/>
			<stop  offset="0.2158" style="stop-color:#E36358"/>
			<stop  offset="0.3215" style="stop-color:#DA3B64"/>
			<stop  offset="0.4054" style="stop-color:#D5236B"/>
			<stop  offset="0.457" style="stop-color:#D31A6E"/>
			<stop  offset="0.5327" style="stop-color:#BA2375"/>
			<stop  offset="0.7564" style="stop-color:#753D88"/>
			<stop  offset="0.918" style="stop-color:#4A4D93"/>
			<stop  offset="1" style="stop-color:#395398"/>
		</linearGradient>
		<path class="st23" d="M313.3,439.6c0,0-24.2-125.6-67.1-168s-89-17.6-110.6-55.1c-21.6-37.5-3.2-94.5-3.2-94.5l-64.1,61.2
			L313.3,439.6z"/>
		
			<linearGradient id="SVGID_24_" gradientUnits="userSpaceOnUse" x1="43.3001" y1="-302.6822" x2="-191.2992" y2="-62.4807" gradientTransform="matrix(-0.691 -0.7229 0.7229 -0.691 294.828 84.639)">
			<stop  offset="0" style="stop-color:#395398;stop-opacity:0.2"/>
			<stop  offset="0.1893" style="stop-color:#703F8B;stop-opacity:0.1621"/>
			<stop  offset="0.3852" style="stop-color:#A12D7F;stop-opacity:0.123"/>
			<stop  offset="0.5708" style="stop-color:#C81F76;stop-opacity:8.584087e-02"/>
			<stop  offset="0.7406" style="stop-color:#E4156F;stop-opacity:5.188939e-02"/>
			<stop  offset="0.889" style="stop-color:#F50F6B;stop-opacity:2.219376e-02"/>
			<stop  offset="1" style="stop-color:#FB0D6A;stop-opacity:0"/>
		</linearGradient>
		<path class="st24" d="M117.9,136c-0.8,21.9,6.8,61.5,17.8,80.5c21.6,37.5,67.7,12.8,110.6,55.1s67.6,167.3,67.6,167.3
			s-11.9-126.6-45.6-182.6c-6.6-5.5-14.6-11.4-24.4-17.8c-13.4-8.7-25.9-16.8-37.5-24.4c-25.1-5.9-44.1-7.9-60.6-28.5
			c-21.9-27.5,12.7-78,20-95.4L117.9,136z"/>
		
			<linearGradient id="SVGID_25_" gradientUnits="userSpaceOnUse" x1="-319.3624" y1="84.7886" x2="-205.8964" y2="-88.9124" gradientTransform="matrix(-0.9309 0.3652 -0.3652 -0.9309 405.8135 274.6881)">
			<stop  offset="0" style="stop-color:#FC17F7"/>
			<stop  offset="0.2377" style="stop-color:#F118EC;stop-opacity:0.8336"/>
			<stop  offset="0.6565" style="stop-color:#D31CD0;stop-opacity:0.5405"/>
			<stop  offset="1" style="stop-color:#B620B4;stop-opacity:0.3"/>
		</linearGradient>
		<path class="st25" d="M595,290.3c53.1-7.9,60.5-37.6,106.9-58.9c46.5-21.2,48.4,15.1,82.1,16.5c33.7,1.4,60.6-51.4,60.6-51.4
			l-3.3-8.5c-11,14.8-28.3,32.4-47.9,31.5c-33.7-1.4-35.6-37.8-82.1-16.5s-53.9,51-106.9,58.9c-53.1,7.9-152.5-56.4-114.2-193.8
			c0,0,1.5-4.5,1.8-11.6l-13,5.1c7.2,18.8,1.8,34.9,1.8,34.9C442.5,233.9,541.9,298.2,595,290.3z"/>
		<g>
			
				<linearGradient id="SVGID_26_" gradientUnits="userSpaceOnUse" x1="-180.4023" y1="-29.8219" x2="-343.8136" y2="204.5569" gradientTransform="matrix(-0.691 -0.7229 0.7229 -0.691 294.828 84.639)">
				<stop  offset="0.4032" style="stop-color:#395398;stop-opacity:0.7"/>
				<stop  offset="0.445" style="stop-color:#454E9B;stop-opacity:0.6505"/>
				<stop  offset="0.6241" style="stop-color:#763AA6;stop-opacity:0.4385"/>
				<stop  offset="0.7819" style="stop-color:#992CAD;stop-opacity:0.2518"/>
				<stop  offset="0.9108" style="stop-color:#AE23B2;stop-opacity:9.927464e-02"/>
				<stop  offset="0.9946" style="stop-color:#B620B4;stop-opacity:0"/>
			</linearGradient>
			<path class="st26" d="M616.3,300.8c-14-37,25.6-78.7-37.3-103.9c-62.8-25.2-63.9-64.9-29.8-85.9c34.2-21,39.9-20.7,50.1-49.8
				c0-0.1,0.1-0.3,0.2-0.4c-15.4,1.9-28.9-0.7-35,16.8c-10.2,29.1-15.9,28.8-50.1,49.8c-34.2,21-33.1,60.7,29.8,85.9
				c62.8,25.2,23.3,66.9,37.3,103.9s61.7,24.8,61.7,24.8l15.2-14.5C643.5,327,624.4,322,616.3,300.8z"/>
			
				<linearGradient id="SVGID_27_" gradientUnits="userSpaceOnUse" x1="-202.5138" y1="270.1431" x2="-203.1947" y2="270.9267" gradientTransform="matrix(-0.691 -0.7229 0.7229 -0.691 294.828 84.639)">
				<stop  offset="0" style="stop-color:#395398"/>
				<stop  offset="0.2455" style="stop-color:#5C42AD;stop-opacity:1"/>
				<stop  offset="0.3978" style="stop-color:#7437BC;stop-opacity:1"/>
				<stop  offset="0.561" style="stop-color:#8132BA;stop-opacity:1"/>
				<stop  offset="0.8652" style="stop-color:#A526B6;stop-opacity:1"/>
				<stop  offset="0.9946" style="stop-color:#B620B4"/>
			</linearGradient>
			<path class="st27" d="M631.8,44.7l-0.8-0.9c-0.3,0.3-0.6,0.7-0.9,1C630.7,44.8,631.3,44.8,631.8,44.7z"/>
		</g>
	</g>
</g>
<path class="st1" d="M150.2,5.1c-0.5,2.5-0.8,4.9-0.8,7.4c-0.1,0.6,0,1.2,0,1.8c0,0.6,0,1.2,0,1.8c0.1,0.6,0.1,1.2,0.1,1.8
	c0,0.6,0,1.2,0.1,1.8c0,0.6,0.1,1.2,0.1,1.9c0,0.6,0,1.3,0.1,1.9c0.2,1.2,0.3,2.5,0.6,3.7c0.4,1.2,0.8,2.4,1.2,3.6
	c0.5,1.2,1.1,2.3,1.7,3.4l0.9,1.6l1,1.6c0.7,1.1,1.3,2.1,1.9,3.2c1.4,2.1,2.8,4.2,4.1,6.3c1.4,2.1,2.7,4.2,4,6.4
	c1.4,2.1,2.8,4.3,4,6.6l-0.2,0.2c-2-1.7-3.8-3.5-5.6-5.3c-0.9-0.9-1.7-2-2.5-3c-0.8-1-1.6-2-2.4-3.1c-0.7-1.1-1.4-2.2-2-3.3
	c-0.6-1.1-1.3-2.2-1.9-3.4c-1.1-2.4-2.2-4.7-2.9-7.2c-0.4-1.2-0.8-2.4-1.2-3.7c-0.4-1.2-0.7-2.5-1.2-3.7c-0.3-0.6-0.4-1.2-0.6-1.8
	l-0.7-1.8c-0.5-1.2-0.8-2.5-1.1-3.8c-0.2-0.6-0.2-1.3-0.3-1.9c-0.1-0.7-0.1-1.3-0.1-2c0-1.3,0.1-2.6,0.3-3.9
	c0.4-2.6,1.2-5.2,2.8-7.3L150.2,5.1z"/>
</svg>
